<?xml version="1.0" standalone="no"?>
<!DOCTYPE svg PUBLIC "-//W3C//DTD SVG 20010904//EN"
 "http://www.w3.org/TR/2001/REC-SVG-20010904/DTD/svg10.dtd">
<svg version="1.0" xmlns="http://www.w3.org/2000/svg"
 width="300.000000pt" height="300.000000pt" viewBox="0 0 300.000000 300.000000"
 preserveAspectRatio="xMidYMid meet">
<metadata>
Created by potrace 1.10, written by Peter Selinger 2001-2011
</metadata>
<g transform="translate(0.000000,300.000000) scale(0.100000,-0.100000)"
fill="#000000" stroke="none">
<path d="M1692 2204 c-15 -11 -22 -25 -22 -50 0 -26 -4 -34 -17 -34 -10 0
-161 -1 -336 -3 l-318 -2 -27 -33 c-15 -18 -34 -32 -43 -32 -19 0 -49 -31 -49
-50 0 -18 134 -250 165 -285 36 -42 38 -56 32 -223 -5 -134 -3 -150 14 -173
13 -16 19 -41 19 -76 0 -45 4 -55 26 -70 20 -13 32 -14 53 -6 18 7 32 6 44 -1
12 -8 25 -7 48 1 38 15 80 -3 101 -41 76 -140 95 -170 121 -192 l30 -25 24 23
c14 13 45 60 69 105 72 131 67 128 171 128 128 0 142 12 146 121 2 41 7 58 20
65 15 9 17 29 17 163 0 146 1 155 24 187 50 70 166 282 166 303 0 27 -18 46
-42 46 -10 0 -51 33 -91 74 -41 41 -85 77 -98 80 -13 2 -69 7 -124 10 -81 5
-105 3 -123 -10z m93 -25 c4 -6 37 -9 82 -8 l75 2 66 -66 67 -67 -549 0 -548
0 15 23 14 22 491 0 491 0 -31 33 c-30 30 -36 32 -100 32 -39 0 -68 -4 -68
-10 0 -5 -9 -10 -20 -10 -14 0 -20 -7 -20 -21 0 -11 -4 -17 -10 -14 -5 3 -10
15 -10 26 0 13 -6 19 -17 17 -19 -3 -25 32 -8 44 15 12 73 9 80 -3z m-507
-184 c-11 -25 -12 -25 -150 -25 -76 0 -138 -2 -138 -4 0 -2 23 -43 51 -90 44
-76 50 -92 47 -133 l-3 -48 -59 105 c-33 58 -74 129 -93 158 -18 29 -33 55
-33 57 0 3 88 5 195 5 l195 0 -12 -25z m130 0 c-9 -19 -19 -25 -45 -25 -29 0
-33 3 -33 25 0 23 4 25 45 25 44 0 44 0 33 -25z m742 21 c0 -1 -40 -74 -90
-162 l-90 -158 0 54 c0 48 6 65 50 138 l49 82 -304 0 -305 0 0 25 0 25 345 0
c190 0 345 -2 345 -4z m-828 -352 c5 -8 -1 -14 -17 -18 -29 -7 -29 -8 -10 -72
10 -32 15 -92 15 -174 l0 -125 -24 52 c-15 31 -33 54 -46 58 -15 5 -19 11 -14
23 24 54 4 204 -28 210 -14 3 -17 -11 -20 -101 -2 -59 1 -103 6 -100 5 3 7 0
4 -8 -3 -9 -23 -15 -52 -17 -45 -3 -47 -2 -37 17 14 26 15 445 1 472 -10 18
-7 19 44 19 55 0 55 0 46 -26 -6 -14 -10 -66 -10 -116 0 -78 2 -89 16 -84 9 3
22 6 30 6 11 0 14 19 14 93 0 50 -4 98 -9 106 -6 10 -1 21 20 38 15 13 34 40
41 60 12 33 13 21 18 -133 3 -93 8 -174 12 -180z m131 -261 c6 -10 -5 -13 -48
-13 -52 0 -55 1 -45 19 12 24 13 450 1 470 -6 10 -1 21 20 38 15 13 34 40 41
60 11 31 14 -2 18 -263 3 -164 9 -305 13 -311z m504 508 c-17 -20 -11 -510 6
-530 10 -12 7 -13 -22 -8 -18 4 -44 7 -58 7 l-24 0 3 180 3 180 -25 0 -25 0 5
-172 c3 -95 9 -179 13 -185 9 -14 -20 -17 -69 -7 l-29 5 3 261 c1 154 -1 265
-7 272 -7 8 23 11 114 11 105 0 122 -2 112 -14z m-259 -41 c-6 -18 -9 -75 -6
-130 2 -54 1 -97 -1 -94 -3 3 -15 23 -26 46 -11 23 -30 46 -40 52 -11 6 -22
12 -24 13 -2 2 1 8 6 15 6 7 13 34 15 61 5 43 4 47 -16 47 -38 0 -46 -19 -46
-106 l0 -82 65 -38 65 -38 0 -107 c0 -88 -3 -108 -16 -113 -9 -3 -56 -6 -106
-6 -89 0 -90 0 -84 23 3 12 6 72 7 132 l0 110 19 -41 c10 -22 30 -50 45 -62
15 -12 24 -26 20 -32 -3 -5 -10 -33 -14 -61 -8 -48 -7 -50 13 -45 11 3 27 6
34 6 9 0 12 25 12 93 l0 92 -63 35 -62 36 -3 98 c-2 64 1 103 9 112 8 10 38
14 110 14 l98 0 -11 -30z m-478 -368 c0 -13 -4 -20 -10 -17 -5 3 -10 21 -10
38 0 24 3 28 10 17 5 -8 10 -25 10 -38z m23 -141 c4 -1 7 -5 7 -11 0 -5 -14
-10 -31 -10 l-31 0 4 -75 3 -75 -27 0 -28 0 0 75 0 75 -31 0 c-24 0 -29 3 -21
13 9 10 101 15 155 8z m151 -6 c4 -12 -3 -15 -29 -15 -24 0 -35 5 -35 15 0 10
10 15 29 15 16 0 31 -6 35 -15z m143 -2 c3 -9 -8 -13 -36 -13 -30 0 -41 -4
-41 -15 0 -10 11 -15 35 -15 24 0 35 -5 35 -14 0 -11 -9 -13 -35 -9 l-35 6 0
-43 0 -42 40 4 c25 2 39 0 37 -7 -2 -5 -31 -11 -65 -13 l-62 -3 0 88 0 88 62
0 c40 0 63 -4 65 -12z m227 -2 c12 -10 16 -31 16 -77 0 -75 -10 -84 -92 -84
l-53 0 0 91 0 91 57 -4 c31 -2 63 -10 72 -17z m146 -61 c0 -70 -2 -81 -20 -90
-27 -15 -92 -9 -98 9 -3 9 0 11 7 6 7 -4 23 -4 37 -1 23 6 24 10 24 81 0 73 1
75 25 75 25 0 25 -1 25 -80z m-307 48 c8 -41 -2 -142 -15 -153 -7 -5 -21 -22
-31 -37 -20 -32 -35 -35 -44 -12 -4 11 3 23 20 36 33 24 34 41 5 60 -20 13
-20 15 -4 40 9 14 14 32 11 41 -4 9 3 21 17 31 30 21 35 20 41 -6z m-320 -45
c11 -26 13 -39 5 -44 -6 -4 -8 -18 -4 -33 6 -24 4 -26 -24 -26 l-30 0 0 70 c0
61 2 70 18 70 11 0 24 -14 35 -37z m103 -33 c2 -70 2 -70 -25 -70 -25 0 -27 3
-23 30 3 18 0 30 -7 30 -9 0 -9 5 0 21 6 12 9 30 6 40 -4 15 0 19 21 19 27 0
27 -1 28 -70z m274 -97 c0 -2 -30 -55 -66 -119 l-66 -115 -25 47 c-14 25 -44
78 -68 118 -40 65 -42 71 -24 74 34 6 45 -4 80 -67 19 -34 36 -61 39 -61 3 0
22 31 42 69 34 61 40 68 63 63 14 -2 25 -6 25 -9z"/>
<path d="M1831 1901 c-6 -11 -11 -38 -11 -60 0 -41 0 -41 38 -41 30 1 34 3 20
11 -13 7 -18 23 -18 54 0 49 -14 66 -29 36z"/>
<path d="M1686 1278 c2 -54 4 -63 20 -63 16 0 19 9 22 63 3 59 2 62 -20 62
-22 0 -23 -4 -22 -62z"/>
</g>
</svg>
