 <svg  version="1.0" xmlns="http://www.w3.org/2000/svg"  width="450.000000pt" height="450.000000pt" viewBox="0 0 450.000000 450.000000"  preserveAspectRatio="xMidYMid meet">  <g transform="translate(0.000000,450.000000) scale(0.100000,-0.100000)" fill="#00ccff" stroke="none"> <path d="M2539 3291 c-31 -32 -38 -71 -15 -91 8 -6 12 -18 9 -26 -4 -12 -81 -14 -503 -14 -306 0 -509 -4 -525 -10 -15 -6 -32 -24 -40 -44 -15 -35 -31 -46 -70 -46 -12 0 -33 -8 -46 -19 -22 -18 -22 -21 -9 -60 7 -22 17 -41 22 -41 4 0 8 -6 8 -14 0 -7 8 -24 19 -37 10 -13 35 -55 56 -93 62 -113 135 -229 162 -256 l25 -24 -5 -231 c-3 -126 -8 -242 -12 -257 -6 -24 -3 -29 29 -44 l36 -18 0 -85 c1 -54 5 -92 13 -103 22 -29 61 -31 111 -8 l47 21 -3 105 -3 104 28 0 c26 0 44 -23 51 -68 1 -7 10 -22 19 -32 16 -19 16 -20 -3 -20 -20 0 -20 -6 -5 -82 3 -15 -5 -18 -46 -18 -48 0 -65 -12 -33 -24 29 -11 60 -6 82 14 25 24 38 25 45 6 3 -8 22 -18 43 -22 28 -5 39 -14 50 -38 42 -91 175 -307 200 -323 19 -12 25 -11 47 9 24 21 92 132 155 251 14 26 28 47 31 47 4 0 7 10 8 21 2 28 3 28 50 33 22 2 57 9 78 16 30 10 39 10 45 -1 13 -20 100 -20 146 0 52 24 63 50 66 156 3 84 5 90 28 102 l24 12 -3 238 -3 238 36 34 c20 19 36 38 36 43 0 4 21 42 46 85 40 68 79 136 118 208 6 11 13 22 16 25 21 21 51 95 46 114 -7 26 -55 51 -85 43 -13 -3 -25 2 -34 17 -8 11 -55 63 -105 114 l-90 92 -101 0 c-68 0 -114 5 -138 15 -19 8 -55 15 -80 15 -36 0 -50 -6 -74 -29z m135 -16 c11 -12 41 -15 128 -15 l113 0 100 -100 100 -100 -822 0 -822 0 20 35 21 35 734 -2 c404 -2 734 -1 734 2 0 3 -19 25 -43 48 l-43 42 -107 0 c-65 0 -107 -4 -107 -10 0 -5 -11 -10 -24 -10 -17 0 -26 -8 -33 -32 -10 -33 -12 -32 -28 17 -2 8 -16 15 -30 15 -22 0 -25 4 -25 35 0 24 5 35 15 35 8 0 15 5 15 10 0 16 87 12 104 -5z m202 -100 c17 -13 8 -14 -88 -15 -60 0 -108 2 -108 5 0 26 164 34 196 10z m-946 -150 c0 -2 -8 -20 -17 -40 l-17 -35 -207 0 -207 0 74 -127 74 -127 -1 -80 c0 -45 -3 -74 -6 -66 -7 18 -215 380 -249 432 -13 21 -24 40 -24 43 0 3 131 5 290 5 160 0 290 -2 290 -5z m54 -537 c7 -15 4 -18 -17 -18 -54 0 -56 -4 -29 -93 22 -72 26 -105 30 -271 3 -126 1 -186 -6 -182 -6 3 -13 19 -17 36 -8 38 -60 108 -89 122 -23 10 -23 12 -10 44 20 48 17 134 -8 228 -12 44 -22 82 -23 83 0 1 -11 0 -23 -4 -21 -5 -22 -9 -22 -147 0 -97 -4 -146 -12 -154 -9 -9 -7 -12 10 -12 15 0 20 -5 16 -15 -5 -11 -23 -15 -75 -15 -69 0 -70 0 -57 23 18 32 19 690 1 709 -24 23 -13 28 66 28 l79 0 -14 -37 c-8 -25 -13 -87 -14 -174 l0 -135 45 10 45 11 0 130 c0 96 -4 138 -15 159 -18 35 -18 36 -1 36 23 0 84 79 103 134 l18 51 5 -265 c3 -146 9 -273 14 -282z m126 502 c-19 -38 -23 -40 -65 -40 l-45 0 0 40 0 40 65 0 65 0 -20 -40z m1117 33 c-2 -5 -56 -98 -119 -208 -64 -110 -125 -218 -136 -240 l-21 -40 -1 79 0 79 73 125 c39 70 73 129 75 132 1 3 -200 4 -448 2 l-450 -3 0 41 0 40 516 0 c283 0 513 -3 511 -7z m-1065 -427 c-2 -345 0 -432 12 -465 l14 -41 -79 0 c-79 0 -90 5 -66 28 9 10 12 93 12 345 0 297 -2 336 -17 359 -17 25 -17 26 8 32 29 8 80 75 96 128 6 21 14 38 17 38 3 0 5 -191 3 -424z m-310 318 c5 -3 2 -14 -8 -25 -14 -16 -26 -17 -95 -12 -86 7 -129 -9 -129 -47 0 -11 -3 -20 -8 -20 -15 0 -65 94 -55 104 7 7 283 7 295 0z m193 -3 c3 -6 -5 -19 -17 -31 l-23 -21 -3 22 c-5 29 29 52 43 30z m535 -1 c0 -22 -37 -29 -177 -32 -127 -2 -154 -6 -170 -20 -28 -26 -33 -23 -33 22 l0 41 190 -1 c105 -1 190 -5 190 -10z m450 3 c0 -14 -54 -113 -62 -113 -4 0 -8 20 -8 44 0 24 -3 51 -6 60 -5 13 2 16 35 16 23 0 41 -3 41 -7z m-94 -45 c-14 -19 -16 -74 -16 -398 0 -324 2 -379 16 -398 14 -21 14 -22 -6 -22 -12 0 -29 7 -38 16 -11 12 -27 15 -58 11 l-43 -4 2 268 2 269 -50 -1 c-27 0 -43 -3 -35 -6 8 -3 18 -11 22 -17 4 -6 8 -122 8 -258 0 -154 4 -249 10 -253 40 -24 -40 -34 -108 -13 l-37 11 3 385 c2 334 1 388 -13 408 l-15 24 185 0 186 0 -15 -22z m-382 -45 c-10 -21 -14 -70 -14 -198 l0 -170 -38 75 c-26 52 -46 79 -67 90 -16 8 -32 16 -34 17 -1 1 4 12 13 25 9 13 16 43 16 71 0 27 5 57 10 68 10 17 7 19 -29 19 -62 0 -71 -21 -71 -165 l0 -120 100 -55 99 -55 1 -156 c0 -107 -4 -159 -12 -167 -8 -8 -59 -12 -164 -12 l-152 0 15 43 c11 32 14 79 11 195 -1 83 0 152 4 152 5 0 8 -7 8 -15 0 -46 79 -155 112 -155 17 0 17 -2 4 -22 -7 -13 -16 -48 -20 -80 -3 -31 -9 -63 -12 -72 -5 -13 1 -16 33 -16 21 0 44 5 51 12 8 8 12 55 12 144 l0 131 -95 54 -95 54 0 157 c0 139 2 158 18 167 9 6 83 11 164 11 l147 0 -15 -27z m-536 -118 c1 -36 -1 -65 -5 -65 -5 0 -9 29 -10 65 -2 36 0 65 5 65 4 0 8 -29 10 -65z m430 -144 c7 -9 17 -24 23 -35 10 -17 9 -18 -17 -12 -40 10 -74 44 -74 74 0 24 0 24 28 6 15 -9 33 -25 40 -33z m-228 -81 c0 -10 -4 -22 -10 -25 -6 -4 -10 7 -10 25 0 18 4 29 10 25 6 -3 10 -15 10 -25z m357 -20 c-1 -11 -7 -20 -14 -20 -14 0 -18 22 -6 33 12 13 22 7 20 -13z m-558 -130 c0 -78 -5 -140 -10 -140 -5 0 -9 19 -9 43 -1 23 -9 76 -19 117 -10 41 -16 80 -14 86 3 9 34 29 51 33 1 1 2 -62 1 -139z m328 83 c37 -17 61 -59 44 -76 -7 -7 -24 3 -51 32 -57 60 -55 74 7 44z m-522 -153 c5 -41 4 -52 -4 -44 -7 6 -14 35 -16 64 -6 70 11 53 20 -20z m597 -332 c-3 -124 -5 -134 -27 -153 -12 -11 -40 -48 -60 -82 -21 -35 -41 -63 -44 -63 -8 0 -61 95 -61 109 0 4 16 11 36 14 37 6 63 30 64 58 0 15 -17 25 -72 43 -25 8 -22 35 5 45 32 12 50 37 44 60 -2 11 3 31 13 46 10 16 16 34 13 41 -4 11 7 14 43 14 l49 0 -3 -132z m-554 110 c22 -22 12 -30 -34 -27 l-47 3 2 -109 c1 -60 4 -112 7 -117 3 -4 -16 -8 -43 -8 l-48 0 3 118 3 117 -46 -3 c-45 -4 -46 -3 -33 17 12 19 22 21 118 21 69 0 110 -4 118 -12z m222 -8 c10 -19 8 -20 -45 -20 -48 0 -55 2 -55 20 0 17 7 20 45 20 34 0 47 -5 55 -20z m208 8 c22 -22 12 -28 -48 -28 -58 0 -60 -1 -60 -26 0 -25 2 -26 50 -22 42 2 50 0 50 -14 0 -15 -9 -18 -50 -18 l-50 0 0 -55 0 -55 60 0 c33 0 60 -4 60 -8 0 -23 -30 -32 -109 -32 l-86 0 0 135 0 135 86 0 c53 0 90 -5 97 -12z m329 1 c39 -15 43 -24 43 -120 0 -118 -4 -123 -122 -129 l-93 -5 0 132 0 133 72 0 c39 0 84 -5 100 -11z m243 -99 c0 -141 -8 -152 -107 -148 -42 2 -68 8 -71 16 -2 8 10 12 41 12 63 0 69 11 65 129 l-3 101 38 0 37 0 0 -110z m-109 55 c7 -66 -2 -133 -17 -139 -30 -12 -41 12 -43 88 -2 70 0 75 21 78 28 5 37 -1 39 -27z m-676 -107 l0 -108 -47 0 c-47 0 -47 0 -38 26 17 45 13 74 -12 74 l-21 0 23 20 c19 16 22 27 18 58 l-6 39 42 0 41 0 0 -109z m389 -138 l25 0 -38 -62 c-21 -35 -66 -114 -101 -177 -46 -81 -67 -110 -73 -100 -4 8 -50 86 -101 174 l-93 160 41 3 c47 4 47 4 113 -116 l45 -83 54 93 c30 51 57 101 60 110 4 14 9 16 24 8 10 -6 30 -10 44 -10z"/> <path d="M2753 2868 c-6 -7 -13 -48 -15 -90 l-5 -78 50 0 c46 0 49 1 32 14 -15 11 -19 27 -20 75 -1 66 -22 105 -42 79z"/> <path d="M2530 1919 l0 -100 33 3 32 3 3 83 c3 91 -5 112 -44 112 -24 0 -24 -1 -24 -101z"/> </g> </svg> 